<svg width="33" height="33" viewBox="0 0 33 33" fill="none" xmlns="http://www.w3.org/2000/svg">
<g clip-path="url(#clip0_54_608)">
<path d="M29.3822 22.331C26.4124 22.331 23.8956 24.3193 23.0651 27.0374C22.2598 24.3193 19.743 22.331 16.748 22.331C13.8286 22.331 11.337 24.2438 10.4813 26.8864C10.4561 26.9367 10.4561 26.987 10.4561 27.0374C10.4561 27.0374 10.4561 27.0374 10.4561 27.0122C10.4561 27.0122 10.4561 27.0122 10.4561 27.0374C10.431 26.987 10.431 26.9367 10.431 26.8864C9.57526 24.2438 7.10883 22.331 4.16422 22.331C3.38402 22.331 2.65416 22.4569 1.94946 22.7085C4.36556 28.5223 10.0786 32.5994 16.7732 32.5994C23.4426 32.5994 29.1809 28.5223 31.5969 22.7085C30.9174 22.4569 30.1624 22.331 29.3822 22.331Z" fill="#FFD600"/>
<path d="M4.18942 18.5559C7.1592 18.5559 9.67597 20.519 10.4813 23.2371C11.2867 20.519 13.8035 18.5559 16.7732 18.5559C19.743 18.5559 22.2598 20.5441 23.0903 23.2622C23.8957 20.5441 26.4125 18.5559 29.3822 18.5559C30.5399 18.5559 31.6222 18.8579 32.5534 19.3612C32.7044 18.4552 32.805 17.4988 32.805 16.5425C32.8302 7.68346 25.6323 0.510681 16.7732 0.510681C7.91423 0.510681 0.741455 7.68346 0.741455 16.5425C0.741455 17.4988 0.842126 18.4552 0.993132 19.3612C1.9495 18.8579 3.03171 18.5559 4.18942 18.5559Z" fill="#252525"/>
<path d="M25.6323 5.36802C26.035 5.41836 26.1608 5.92171 25.8084 6.14822L12.3941 14.9569C9.978 16.5425 7.56191 16.7186 5.74984 16.5676C5.37232 16.5425 5.27165 16.0391 5.57366 15.8378L19.9444 6.42506C21.7816 5.21702 24.2481 5.21702 25.6323 5.36802Z" fill="white"/>
<path d="M17.5536 8.48879L10.1543 7.83443C9.75161 7.80926 9.34893 7.90993 8.99658 8.11127L8.41772 8.48879L13.5771 11.1062L17.5536 8.48879Z" fill="white"/>
<path d="M18.3589 10.4267L19.9445 12.8176C20.2465 13.2706 20.322 13.8495 20.1458 14.378L20.0703 14.6045L15.1375 11.7857L18.3589 10.4267Z" fill="white"/>
<path d="M9.82706 13.5727L7.08379 12.3646L6.15259 12.9938L7.68781 15.3344L9.82706 13.5727Z" fill="white"/>
</g>
<defs>
<clipPath id="clip0_54_608">
<rect width="32.0887" height="32.0887" fill="white" transform="translate(0.741455 0.510681)"/>
</clipPath>
</defs>
</svg>
