<svg width="15" height="15" viewBox="0 0 15 15" fill="none" xmlns="http://www.w3.org/2000/svg">
<path d="M13.8465 6.57717C14.1221 6.28942 14.2194 5.86712 14.1005 5.47455C13.9814 5.08197 13.671 4.80174 13.2898 4.74227L9.89994 4.21453C9.75557 4.19201 9.63082 4.09499 9.56634 3.95472L8.05084 0.663973C7.88068 0.294229 7.5353 0.0644531 7.1504 0.0644531C6.76578 0.0644531 6.4204 0.294229 6.25024 0.663973L4.73446 3.95502C4.66998 4.09529 4.54495 4.19231 4.40058 4.21483L1.01075 4.74257C0.629774 4.80174 0.319162 5.08227 0.200019 5.47485C0.0811561 5.86742 0.178433 6.28972 0.454003 6.57747L2.90667 9.13894C3.01123 9.24827 3.05917 9.40566 3.0345 9.55945L2.45589 13.1764C2.40458 13.4948 2.48252 13.8044 2.67483 14.0486C2.97367 14.4292 3.49537 14.5451 3.91251 14.3102L6.94407 12.6024C7.07078 12.5312 7.23029 12.5318 7.35673 12.6024L10.3886 14.3102C10.536 14.3934 10.6933 14.4355 10.8556 14.4355C11.1519 14.4355 11.4328 14.2943 11.626 14.0486C11.8186 13.8044 11.8962 13.4942 11.8449 13.1764L11.266 9.55945C11.2413 9.40536 11.2893 9.24827 11.3939 9.13894L13.8465 6.57717Z" fill="#FFB800"/>
</svg>
