<svg width="14" height="14" viewBox="0 0 14 14" fill="none" xmlns="http://www.w3.org/2000/svg">
<g clip-path="url(#clip0_54_646)">
<path d="M1.13452 13.8744C1.00896 13.8744 0.886208 13.8372 0.781799 13.7674C0.677391 13.6977 0.596013 13.5986 0.547959 13.4825C0.499906 13.3665 0.487335 13.2389 0.511837 13.1157C0.53634 12.9926 0.596814 12.8795 0.685612 12.7907L12.4161 1.06024C12.5351 0.941184 12.6966 0.874298 12.865 0.874298C13.0334 0.874298 13.1948 0.941184 13.3139 1.06024C13.433 1.1793 13.4998 1.34078 13.4998 1.50915C13.4998 1.67752 13.433 1.839 13.3139 1.95805L1.58342 13.6885C1.52453 13.7475 1.45455 13.7943 1.37751 13.8262C1.30048 13.8581 1.2179 13.8745 1.13452 13.8744Z" fill="#959595"/>
<path d="M12.8652 13.8744C12.7818 13.8745 12.6992 13.8581 12.6222 13.8262C12.5452 13.7943 12.4752 13.7475 12.4163 13.6885L0.685821 1.95805C0.566764 1.839 0.499878 1.67752 0.499878 1.50915C0.499878 1.34078 0.566764 1.1793 0.685821 1.06024C0.804878 0.941184 0.966355 0.874298 1.13473 0.874298C1.3031 0.874298 1.46458 0.941184 1.58363 1.06024L13.3141 12.7907C13.4029 12.8795 13.4634 12.9926 13.4879 13.1157C13.5124 13.2389 13.4998 13.3665 13.4518 13.4825C13.4037 13.5986 13.3223 13.6977 13.2179 13.7674C13.1135 13.8372 12.9908 13.8744 12.8652 13.8744Z" fill="#959595"/>
</g>
<defs>
<clipPath id="clip0_54_646">
<rect width="13" height="13" fill="white" transform="translate(0.5 0.874512)"/>
</clipPath>
</defs>
</svg>
