<svg width="10" height="9" viewBox="0 0 10 9" fill="none" xmlns="http://www.w3.org/2000/svg">
<path d="M4.97901 8.69394C4.81892 8.6959 4.66004 8.66595 4.51165 8.60585C4.36325 8.54575 4.22831 8.4567 4.1147 8.34389L1.11121 5.31879C0.753924 4.96956 0.494166 4.53297 0.357712 4.05235C0.221259 3.57173 0.212852 3.06379 0.333328 2.57891C0.461101 2.11048 0.707046 1.68271 1.04759 1.33661C1.38813 0.990513 1.81186 0.737678 2.27817 0.602341C2.74447 0.467004 3.23772 0.453701 3.71065 0.563708C4.18357 0.673714 4.62031 0.903342 4.97901 1.23058C5.33772 0.903342 5.77446 0.673714 6.24738 0.563708C6.7203 0.453701 7.21355 0.467004 7.67986 0.602341C8.14616 0.737678 8.56989 0.990513 8.91044 1.33661C9.25098 1.68271 9.49693 2.11048 9.6247 2.57891C9.7476 3.06809 9.7392 3.58104 9.60034 4.06592C9.46147 4.55081 9.19707 4.99044 8.83385 5.3404L5.80876 8.3655C5.58436 8.57707 5.28742 8.6946 4.97901 8.69394ZM3.06456 1.13983C2.59703 1.13983 2.14211 1.29147 1.76809 1.57199C1.37261 1.86213 1.08762 2.27819 0.959955 2.75178C0.866847 3.13025 0.875363 3.5266 0.98464 3.90072C1.09392 4.27484 1.30008 4.61346 1.58226 4.88231L4.60736 7.90741C4.71183 8.01139 4.85323 8.06976 5.00062 8.06976C5.14802 8.06976 5.28941 8.01139 5.39389 7.90741L8.41898 4.90392C8.69766 4.62784 8.8981 4.28277 8.99984 3.90391C9.10157 3.52506 9.10096 3.126 8.99807 2.74746C8.87065 2.27606 8.58732 1.86173 8.19426 1.57199C7.74766 1.24549 7.19477 1.09851 6.64499 1.16013C6.09521 1.22175 5.58859 1.48748 5.22534 1.90475C5.19317 1.93742 5.15483 1.96336 5.11254 1.98106C5.07025 1.99877 5.02486 2.00789 4.97901 2.00789C4.93317 2.00789 4.88778 1.99877 4.84549 1.98106C4.8032 1.96336 4.76485 1.93742 4.73269 1.90475C4.5261 1.66467 4.2701 1.47204 3.9822 1.34002C3.6943 1.20801 3.38129 1.13972 3.06456 1.13983Z" fill="white"/>
</svg>
